/* XPM */
static char *hexagon[] = {
/* columns rows colors chars-per-pixel */
"86 50 5 1 ",
"  c #000000",
". c #000000",
"O c #000000",
"@ c #111111",
"# c #000000",
/* pixels */
"OOOOOOOOOOOO@##                             ..@OOOOOOOOOOOOOOOOOOOOOOOOOOOOOOOOOOOOOOO",
"OOOOOOOOOOO@## ............................. ..@OOOOOOOOOOOOOOOOOOOOOOOOOOOOOOOOOOOOOO",
"OOOOOOOOOO@## .............................## ..@OOOOOOOOOOOOOOOOOOOOOOOOOOOOOOOOOOOOO",
"OOOOOOOOOO@## ..@@@@@@@@@@@@@@@@@@@@@@@@@@@## ..@OOOOOOOOOOOOOOOOOOOOOOOOOOOOOOOOOOOOO",
"OOOOOOOOO@## ..@OOOOOOOOOOOOOOOOOOOOOOOOOOO@## ..@OOOOOOOOOOOOOOOOOOOOOOOOOOOOOOOOOOOO",
"OOOOOOOOO@## ..@OOOOOOOOOOOOOOOOOOOOOOOOOOO@## ..@OOOOOOOOOOOOOOOOOOOOOOOOOOOOOOOOOOOO",
"OOOOOOOO@## ..@OOOOOOOOOOOOOOOOOOOOOOOOOOOOO@## ..@OOOOOOOOOOOOOOOOOOOOOOOOOOOOOOOOOOO",
"OOOOOOO@## ..@OOOOOOOOOOOOOOOOOOOOOOOOOOOOOOO@## ..@OOOOOOOOOOOOOOOOOOOOOOOOOOOOOOOOOO",
"OOOOOOO@## ..@OOOOOOOOOOOOOOOOOOOOOOOOOOOOOOO@## ..@OOOOOOOOOOOOOOOOOOOOOOOOOOOOOOOOOO",
"OOOOOO@## ..@OOOOOOOOOOOOOOOOOOOOOOOOOOOOOOOOO@## ..@OOOOOOOOOOOOOOOOOOOOOOOOOOOOOOOOO",
"OOOOOO@## ..@OOOOOOOOOOOOOOOOOOOOOOOOOOOOOOOOO@## ..@OOOOOOOOOOOOOOOOOOOOOOOOOOOOOOOOO",
"OOOOO@## ..@OOOOOOOOOOOOOOOOOOOOOOOOOOOOOOOOOOO@## ..@OOOOOOOOOOOOOOOOOOOOOOOOOOOOOOOO",
"OOOOO@## ..@OOOOOOOOOOOOOOOOOOOOOOOOOOOOOOOOOOO@## ..@OOOOOOOOOOOOOOOOOOOOOOOOOOOOOOOO",
"OOOO@## ..@OOOOOOOOOOOOOOOOOOOOOOOOOOOOOOOOOOOOO@## ..@OOOOOOOOOOOOOOOOOOOOOOOOOOOOOOO",
"OOO@## ..@OOOOOOOOOOOOOOOOOOOOOOOOOOOOOOOOOOOOOOO@## ..@OOOOOOOOOOOOOOOOOOOOOOOOOOOOOO",
"OOO@## ..@OOOOOOOOOOOOOOOOOOOOOOOOOOOOOOOOOOOOOOO@## ..@OOOOOOOOOOOOOOOOOOOOOOOOOOOOOO",
"OO@## ..@OOOOOOOOOOOOOOOOOOOOOOOOOOOOOOOOOOOOOOOOO@## ..@OOOOOOOOOOOOOOOOOOOOOOOOOOOOO",
"OO@## ..@OOOOOOOOOOOOOOOOOOOOOOOOOOOOOOOOOOOOOOOOO@## ..@OOOOOOOOOOOOOOOOOOOOOOOOOOOOO",
"O@## ..@OOOOOOOOOOOOOOOOOOOOOOOOOOOOOOOOOOOOOOOOOOO@## ..@OOOOOOOOOOOOOOOOOOOOOOOOOOOO",
"@## ..@OOOOOOOOOOOOOOOOOOOOOOOOOOOOOOOOOOOOOOOOOOOOO@## ..@OOOOOOOOOOOOOOOOOOOOOOOOOOO",
"@## ..@OOOOOOOOOOOOOOOOOOOOOOOOOOOOOOOOOOOOOOOOOOOOO@## ..@OOOOOOOOOOOOOOOOOOOOOOOOOOO",
"## ..@OOOOOOOOOOOOOOOOOOOOOOOOOOOOOOOOOOOOOOOOOOOOOOO@## ..@OOOOOOOOOOOOOOOOOOOOOOOOO@",
"## ..@OOOOOOOOOOOOOOOOOOOOOOOOOOOOOOOOOOOOOOOOOOOOOOO@## ..@@@@@@@@@@@@@@@@@@@@@@@@@@@",
"# ..@OOOOOOOOOOOOOOOOOOOOOOOOOOOOOOOOOOOOOOOOOOOOOOOOO@## .###########################",
"# ..@OOOOOOOOOOOOOOOOOOOOOOOOOOOOOOOOOOOOOOOOOOOOOOOOO@## ############################",
" ..@OOOOOOOOOOOOOOOOOOOOOOOOOOOOOOOOOOOOOOOOOOOOOOOOOOO@##                            ",
". ..@OOOOOOOOOOOOOOOOOOOOOOOOOOOOOOOOOOOOOOOOOOOOOOOOO@## ............................",
"## ..@OOOOOOOOOOOOOOOOOOOOOOOOOOOOOOOOOOOOOOOOOOOOOOO@## .............................",
"## ..@OOOOOOOOOOOOOOOOOOOOOOOOOOOOOOOOOOOOOOOOOOOOOOO@## ..@@@@@@@@@@@@@@@@@@@@@@@@@@@",
"@## ..@OOOOOOOOOOOOOOOOOOOOOOOOOOOOOOOOOOOOOOOOOOOOO@## ..@OOOOOOOOOOOOOOOOOOOOOOOOOOO",
"@## ..@OOOOOOOOOOOOOOOOOOOOOOOOOOOOOOOOOOOOOOOOOOOOO@## ..@OOOOOOOOOOOOOOOOOOOOOOOOOOO",
"O@## ..@OOOOOOOOOOOOOOOOOOOOOOOOOOOOOOOOOOOOOOOOOOO@## ..@OOOOOOOOOOOOOOOOOOOOOOOOOOOO",
"OO@## ..@OOOOOOOOOOOOOOOOOOOOOOOOOOOOOOOOOOOOOOOOO@## ..@OOOOOOOOOOOOOOOOOOOOOOOOOOOOO",
"OO@## ..@OOOOOOOOOOOOOOOOOOOOOOOOOOOOOOOOOOOOOOOOO@## ..@OOOOOOOOOOOOOOOOOOOOOOOOOOOOO",
"OOO@## ..@OOOOOOOOOOOOOOOOOOOOOOOOOOOOOOOOOOOOOOO@## ..@OOOOOOOOOOOOOOOOOOOOOOOOOOOOOO",
"OOO@## ..@OOOOOOOOOOOOOOOOOOOOOOOOOOOOOOOOOOOOOOO@## ..@OOOOOOOOOOOOOOOOOOOOOOOOOOOOOO",
"OOOO@## ..@OOOOOOOOOOOOOOOOOOOOOOOOOOOOOOOOOOOOO@## ..@OOOOOOOOOOOOOOOOOOOOOOOOOOOOOOO",
"OOOO@## ..@OOOOOOOOOOOOOOOOOOOOOOOOOOOOOOOOOOOOO@## ..@OOOOOOOOOOOOOOOOOOOOOOOOOOOOOOO",
"OOOOO@## ..@OOOOOOOOOOOOOOOOOOOOOOOOOOOOOOOOOOO@## ..@OOOOOOOOOOOOOOOOOOOOOOOOOOOOOOOO",
"OOOOOO@## ..@OOOOOOOOOOOOOOOOOOOOOOOOOOOOOOOOO@## ..@OOOOOOOOOOOOOOOOOOOOOOOOOOOOOOOOO",
"OOOOOO@## ..@OOOOOOOOOOOOOOOOOOOOOOOOOOOOOOOOO@## ..@OOOOOOOOOOOOOOOOOOOOOOOOOOOOOOOOO",
"OOOOOOO@## ..@OOOOOOOOOOOOOOOOOOOOOOOOOOOOOOO@## ..@OOOOOOOOOOOOOOOOOOOOOOOOOOOOOOOOOO",
"OOOOOOO@## ..@OOOOOOOOOOOOOOOOOOOOOOOOOOOOOOO@## ..@OOOOOOOOOOOOOOOOOOOOOOOOOOOOOOOOOO",
"OOOOOOOO@## ..@OOOOOOOOOOOOOOOOOOOOOOOOOOOOO@## ..@OOOOOOOOOOOOOOOOOOOOOOOOOOOOOOOOOOO",
"OOOOOOOOO@## ..@OOOOOOOOOOOOOOOOOOOOOOOOOOO@## ..@OOOOOOOOOOOOOOOOOOOOOOOOOOOOOOOOOOOO",
"OOOOOOOOO@## ..@OOOOOOOOOOOOOOOOOOOOOOOOOOO@## ..@OOOOOOOOOOOOOOOOOOOOOOOOOOOOOOOOOOOO",
"OOOOOOOOOO@## ..@OOOOOOOOOOOOOOOOOOOOOOOOO@## ..@OOOOOOOOOOOOOOOOOOOOOOOOOOOOOOOOOOOOO",
"OOOOOOOOOO@## ..@@@@@@@@@@@@@@@@@@@@@@@@@@@## ..@OOOOOOOOOOOOOOOOOOOOOOOOOOOOOOOOOOOOO",
"OOOOOOOOOOO@## .############################ ..@OOOOOOOOOOOOOOOOOOOOOOOOOOOOOOOOOOOOOO",
"OOOOOOOOOOO@## ############################# ..@OOOOOOOOOOOOOOOOOOOOOOOOOOOOOOOOOOOOOO"
};
